<svg xmlns="http://www.w3.org/2000/svg" width="800" height="1200" viewBox="0 0 800 1200">
  <rect width="800" height="1200" fill="#0a0a0a"/>
  <!-- Layer 1: darkest blobs -->
  <g fill="#000000" opacity="0.9">
    <ellipse cx="120" cy="80" rx="180" ry="90" transform="rotate(-15 120 80)"/>
    <ellipse cx="600" cy="200" rx="200" ry="120" transform="rotate(25 600 200)"/>
    <ellipse cx="300" cy="400" rx="250" ry="100" transform="rotate(-30 300 400)"/>
    <ellipse cx="700" cy="550" rx="180" ry="130" transform="rotate(10 700 550)"/>
    <ellipse cx="100" cy="700" rx="220" ry="95" transform="rotate(-20 100 700)"/>
    <ellipse cx="500" cy="850" rx="200" ry="110" transform="rotate(35 500 850)"/>
    <ellipse cx="200" cy="1050" rx="240" ry="100" transform="rotate(-10 200 1050)"/>
    <ellipse cx="650" cy="1100" rx="180" ry="120" transform="rotate(20 650 1100)"/>
  </g>
  <!-- Layer 2: dark gray patches -->
  <g fill="#1a1a1a" opacity="0.85">
    <path d="M50,150 Q120,80 250,120 Q350,160 320,250 Q280,340 180,310 Q80,280 50,150Z"/>
    <path d="M400,50 Q520,30 580,130 Q640,230 560,280 Q480,330 400,270 Q330,200 400,50Z"/>
    <path d="M150,450 Q280,400 350,480 Q420,560 340,620 Q260,680 170,610 Q80,540 150,450Z"/>
    <path d="M550,400 Q680,370 740,460 Q800,540 720,600 Q640,660 560,580 Q490,500 550,400Z"/>
    <path d="M80,800 Q200,750 300,820 Q380,880 300,950 Q220,1020 120,960 Q30,900 80,800Z"/>
    <path d="M480,700 Q600,660 680,740 Q760,820 680,890 Q600,960 510,880 Q420,800 480,700Z"/>
    <path d="M300,1000 Q420,960 500,1040 Q560,1100 480,1160 Q400,1200 320,1140 Q240,1080 300,1000Z"/>
  </g>
  <!-- Layer 3: medium gray -->
  <g fill="#333333" opacity="0.7">
    <path d="M200,100 Q260,60 320,110 Q370,170 310,210 Q240,230 200,170 Q170,130 200,100Z"/>
    <path d="M500,150 Q560,120 600,170 Q630,230 570,260 Q510,280 480,220 Q460,170 500,150Z"/>
    <path d="M100,350 Q170,310 230,360 Q280,420 220,460 Q160,490 110,430 Q70,380 100,350Z"/>
    <path d="M600,500 Q660,470 710,520 Q750,580 690,620 Q630,650 590,590 Q560,540 600,500Z"/>
    <path d="M350,600 Q420,570 470,620 Q510,680 450,720 Q390,750 340,690 Q300,640 350,600Z"/>
    <path d="M200,850 Q270,820 330,870 Q380,930 320,970 Q260,1000 210,940 Q170,890 200,850Z"/>
    <path d="M550,900 Q620,870 670,920 Q710,980 650,1020 Q590,1050 540,990 Q500,940 550,900Z"/>
    <path d="M400,1100 Q460,1070 510,1120 Q550,1170 490,1190 Q430,1200 390,1160 Q360,1130 400,1100Z"/>
  </g>
  <!-- Layer 4: light accent highlights -->
  <g fill="#555555" opacity="0.45">
    <path d="M160,130 Q200,110 230,140 Q250,180 220,200 Q180,210 160,180 Q145,155 160,130Z"/>
    <path d="M530,180 Q560,160 580,190 Q600,220 575,240 Q545,250 525,220 Q515,195 530,180Z"/>
    <path d="M280,480 Q310,460 340,490 Q360,520 335,540 Q305,550 280,520 Q265,500 280,480Z"/>
    <path d="M650,560 Q680,540 700,570 Q720,600 695,620 Q665,630 645,600 Q635,575 650,560Z"/>
    <path d="M130,750 Q160,730 190,760 Q210,790 185,810 Q155,820 130,790 Q115,770 130,750Z"/>
    <path d="M480,800 Q510,785 535,810 Q555,840 530,860 Q500,870 480,840 Q465,820 480,800Z"/>
    <path d="M350,1050 Q380,1030 410,1060 Q430,1090 405,1110 Q375,1120 350,1090 Q335,1070 350,1050Z"/>
  </g>
</svg>